<svg xmlns="http://www.w3.org/2000/svg" viewBox="0 0 820 290" width="820" height="290" role="img" aria-label="Native protocol — requests per second, one key"><style>
.bg{fill:#ffffff} .t{fill:#1f2328;font-family:-apple-system,BlinkMacSystemFont,'Segoe UI',Helvetica,Arial,sans-serif} .m{fill:#59636e;font-family:-apple-system,BlinkMacSystemFont,'Segoe UI',Helvetica,Arial,sans-serif}
.n{fill:#1f2328;font-family:ui-monospace,SFMono-Regular,Menlo,Consolas,monospace} .r{fill:#59636e;font-family:ui-monospace,SFMono-Regular,Menlo,Consolas,monospace}
.us{fill:#0e7c66} .peer{fill:#9aa6a1} .grid{stroke:#d1d9e0} .usn{fill:#0e7c66;font-weight:700;font-family:-apple-system,BlinkMacSystemFont,'Segoe UI',Helvetica,Arial,sans-serif}
@media (prefers-color-scheme: dark){
 .bg{fill:#0d1117} .t,.n{fill:#e6edf3} .m,.r{fill:#9198a1} .us,.usn{fill:#3fc4a2} .peer{fill:#6d7b76} .grid{stroke:#30363d}
}</style><rect class="bg" width="820" height="290" rx="6"/><text class="t" x="24" y="34" font-size="18" font-weight="600">Native protocol — requests per second, one key</text><text class="m" x="24" y="56" font-size="12.5">50 connections · simpleconf TCP vs Valkey 8 RESP · depth = commands pipelined per connection</text><text class="m" x="24.0" y="86" font-size="13">GET, depth 1</text><text class="usn" x="102.0" y="115" font-size="13" text-anchor="end">simpleconf</text><rect class="us" x="110.0" y="100" width="197.3" height="21" rx="2"/><text x="313.3" y="115" font-size="12.5"><tspan class="n">269k</tspan></text><text class="t" x="102.0" y="145" font-size="13" text-anchor="end">Valkey 8</text><rect class="peer" x="110.0" y="130" width="167.4" height="21" rx="2"/><text x="283.4" y="145" font-size="12.5"><tspan class="n">228k</tspan><tspan class="r" dx="6">85%</tspan></text><text class="m" x="426.0" y="86" font-size="13">SET, depth 1</text><text class="usn" x="504.0" y="115" font-size="13" text-anchor="end">simpleconf</text><rect class="us" x="512.0" y="100" width="197.3" height="21" rx="2"/><text x="715.3" y="115" font-size="12.5"><tspan class="n">255k</tspan></text><text class="t" x="504.0" y="145" font-size="13" text-anchor="end">Valkey 8</text><rect class="peer" x="512.0" y="130" width="182.2" height="21" rx="2"/><text x="700.2" y="145" font-size="12.5"><tspan class="n">235k</tspan><tspan class="r" dx="6">92%</tspan></text><text class="m" x="24.0" y="186" font-size="13">GET, depth 64</text><text class="usn" x="102.0" y="215" font-size="13" text-anchor="end">simpleconf</text><rect class="us" x="110.0" y="200" width="197.3" height="21" rx="2"/><text x="313.3" y="215" font-size="12.5"><tspan class="n">8.45M</tspan></text><text class="t" x="102.0" y="245" font-size="13" text-anchor="end">Valkey 8</text><rect class="peer" x="110.0" y="230" width="42.7" height="21" rx="2"/><text x="158.7" y="245" font-size="12.5"><tspan class="n">1.83M</tspan><tspan class="r" dx="6">22%</tspan></text><text class="m" x="426.0" y="186" font-size="13">SET, depth 64</text><text class="usn" x="504.0" y="215" font-size="13" text-anchor="end">simpleconf</text><rect class="us" x="512.0" y="200" width="197.3" height="21" rx="2"/><text x="715.3" y="215" font-size="12.5"><tspan class="n">1.46M</tspan></text><text class="t" x="504.0" y="245" font-size="13" text-anchor="end">Valkey 8</text><rect class="peer" x="512.0" y="230" width="113.9" height="21" rx="2"/><text x="631.9" y="245" font-size="12.5"><tspan class="n">843k</tspan><tspan class="r" dx="6">58%</tspan></text></svg>
